<svg width="220" height="24" viewBox="0 0 220 24" fill="none" xmlns="http://www.w3.org/2000/svg">
<path d="M7.3182 21.9941C7.66637 22.0284 8.01754 21.9737 8.33882 21.8352C8.66009 21.6968 8.94094 21.479 9.15507 21.2023C9.47575 20.5004 9.61804 19.7301 9.56928 18.96V17.9354L9.60294 14.1768L3.84206 5.11396C3.02607 3.98921 2.41878 2.72702 2.0491 1.38753L0 1.45339V0.00292567H8.54181V1.09041C6.82056 1.09041 5.95994 1.5739 5.95994 2.54088C6.03386 3.3186 6.32047 4.06096 6.78836 4.68658L7.81291 6.29658C9.22484 8.58279 10.4494 10.4401 11.4866 11.8687H11.5525C12.3243 10.3523 13.505 8.10808 15.0945 5.13591L15.7898 3.84937C16.2238 2.95741 16.7565 2.11691 17.3778 1.34362L14.7637 1.44315V0.00292567H21.5155V1.09041C20.5524 1.12574 19.6325 1.49939 18.9176 2.1457C18.001 3.08804 17.2361 4.16689 16.6504 5.34375L12.4805 13.1903C12.458 14.2637 12.4414 15.4068 12.4307 16.6196C12.42 17.8325 12.4234 18.679 12.4409 19.159C12.4535 20.0286 12.4203 20.8982 12.3414 21.7643L15.0887 21.6326V23.0831H7.3182V21.9941ZM30.0559 23.6041C29.7991 23.6063 29.5448 23.5529 29.3106 23.4475C29.0764 23.3422 28.8678 23.1874 28.6991 22.9938C28.3236 22.5859 28.122 22.0477 28.137 21.4936C28.1267 20.9311 28.3368 20.3868 28.7225 19.9772C28.8928 19.7802 29.1036 19.6223 29.3405 19.5142C29.5775 19.406 29.8349 19.3503 30.0954 19.3508C30.3565 19.3458 30.6154 19.3995 30.8531 19.5079C31.0907 19.6163 31.3009 19.7767 31.4683 19.9772C31.833 20.3969 32.0277 20.9377 32.0142 21.4936C32.0204 21.7699 31.9718 22.0447 31.8713 22.3021C31.7708 22.5596 31.6204 22.7947 31.4288 22.9938C31.2565 23.1881 31.0448 23.3435 30.8079 23.4497C30.5709 23.556 30.3141 23.6106 30.0544 23.61L30.0559 23.6041ZM44.9162 21.9941C45.2644 22.0284 45.6155 21.9737 45.9368 21.8352C46.2581 21.6968 46.5389 21.479 46.7531 21.2023C47.0737 20.5004 47.216 19.7301 47.1673 18.96V17.9354L47.2009 1.21921L43.7921 1.25287C43.2268 1.20191 42.658 1.3017 42.1438 1.5421C41.6296 1.7825 41.1883 2.1549 40.8648 2.62138C40.1835 3.95981 39.8799 5.45862 39.9867 6.95668H38.7616L38.9606 0H58.2529L58.4519 6.95668H57.1947C57.208 5.83842 57.0686 4.72358 56.7805 3.643C56.5805 2.89518 56.1234 2.24172 55.4895 1.79735C54.7017 1.34459 53.7986 1.13242 52.8916 1.18701H50.077L50.0433 19.1561C50.0559 20.0257 50.0226 20.8953 49.9438 21.7614L52.6911 21.6297V23.0801H44.9147L44.9162 21.9941Z" fill="#D0D0D0"/>
<path d="M74.6603 20.387C74.7968 20.4005 74.9345 20.384 75.0639 20.3388C75.1934 20.2935 75.3114 20.2206 75.4097 20.1251C75.5639 19.9418 75.6556 19.7142 75.6717 19.4752C75.6961 19.2166 75.7141 18.7863 75.7258 18.1843L75.7624 9.46536C75.7548 9.07377 75.7788 8.68219 75.8342 8.29445L74.552 8.36617V7.60801C75.0428 7.62883 75.5344 7.58951 76.0156 7.49091C76.2601 7.42432 76.4836 7.29693 76.6655 7.12061H77.207C77.2549 7.70607 77.2788 8.031 77.2788 8.0954C77.6611 7.75721 78.1014 7.49093 78.5785 7.30942C79.0552 7.1183 79.5637 7.01898 80.0772 7.01669C80.7715 7.01239 81.4531 7.20307 82.0444 7.56702C82.6613 7.95025 83.1634 8.4928 83.4978 9.13751C83.876 9.86438 84.0653 10.6747 84.0481 11.494C84.0653 12.4206 83.8478 13.3364 83.4158 14.1563C83.0247 14.9006 82.4422 15.5272 81.7282 15.9712C81.0437 16.3989 80.2521 16.6242 79.445 16.6211C78.6801 16.6394 77.9267 16.4322 77.2788 16.0254V19.0112C77.2875 19.4218 77.2635 19.8324 77.207 20.2392L78.3443 20.1851V20.9257H74.6603V20.387ZM79.4025 15.8878C79.9402 15.8976 80.463 15.7113 80.8735 15.3638C81.3191 14.9699 81.6524 14.4649 81.8395 13.9002C82.0776 13.2159 82.1935 12.4951 82.182 11.7706C82.2126 10.8059 81.9717 9.85198 81.4867 9.01749C81.2781 8.65862 80.9752 8.36372 80.6109 8.16479C80.2466 7.96586 79.8348 7.87049 79.4201 7.88902C79.0171 7.89165 78.6208 7.9921 78.2653 8.18175C77.9025 8.36652 77.5731 8.61038 77.2905 8.90333C77.3022 8.98724 77.308 9.35413 77.308 10.004L77.2949 15.1838C77.8981 15.6491 78.6407 15.8972 79.4025 15.8878ZM89.0245 15.7795C89.1622 15.7923 89.3011 15.7756 89.4319 15.7304C89.5626 15.6852 89.6822 15.6126 89.7826 15.5175C89.946 15.3274 90.0439 15.0898 90.0622 14.8399C90.0924 14.5627 90.1076 14.1417 90.1076 13.5767V5.03785C90.1045 4.64686 90.1226 4.25598 90.1617 3.86694L88.8796 3.93866V3.18049C89.3975 3.19983 89.9158 3.15757 90.4237 3.05462C90.6868 2.99287 90.9313 2.8689 91.1365 2.6931H91.6605V8.19932C92.0908 7.84469 92.5712 7.55566 93.0861 7.34162C93.5699 7.12893 94.0915 7.01546 94.62 7.00791C95.0474 6.97103 95.4774 7.04078 95.8713 7.2109C96.2652 7.38102 96.6107 7.64621 96.8769 7.9827C97.4194 8.91203 97.6707 9.98269 97.5985 11.0563L97.616 14.4139C97.6248 14.8245 97.6008 15.2351 97.5443 15.6419L98.6816 15.5878V16.3284H95.0049V15.7868C95.1414 15.8003 95.2791 15.7838 95.4085 15.7386C95.538 15.6933 95.656 15.6204 95.7543 15.5248C95.9109 15.3354 96.0055 15.1024 96.0251 14.8574C96.0553 14.5862 96.0704 14.1617 96.0704 13.584V11.0505C96.1237 10.2471 95.9551 9.4446 95.5831 8.73062C95.4194 8.47726 95.1907 8.27246 94.9209 8.13757C94.6511 8.00267 94.3501 7.94262 94.0492 7.96367C93.5884 7.96719 93.1345 8.07529 92.7216 8.27982C92.3141 8.46587 91.9531 8.74036 91.6649 9.08335V14.4095C91.6692 14.8207 91.6388 15.2315 91.5741 15.6375L92.7114 15.5834V16.324H89.0245V15.7795ZM108.106 16.6094C107.307 16.6177 106.519 16.4158 105.823 16.0239C105.136 15.6378 104.568 15.0715 104.179 14.3861C103.77 13.6658 103.561 12.8491 103.575 12.0209C103.562 11.1338 103.767 10.2571 104.17 9.46683C104.543 8.72969 105.107 8.10636 105.804 7.66216C106.491 7.2242 107.291 6.99538 108.106 7.00352C108.91 6.99673 109.702 7.20545 110.398 7.60801C111.087 8.00221 111.657 8.57383 112.05 9.26338C112.456 9.9717 112.665 10.7758 112.655 11.592C112.664 12.4714 112.456 13.3394 112.05 14.1197C111.673 14.8616 111.107 15.4907 110.408 15.9434C109.723 16.3862 108.922 16.6177 108.106 16.6094ZM108.252 15.8878C108.645 15.909 109.036 15.8185 109.379 15.6268C109.723 15.4351 110.005 15.1501 110.193 14.8047C110.632 13.978 110.846 13.0501 110.812 12.1146C110.842 11.0339 110.61 9.96217 110.135 8.99114C109.962 8.59801 109.677 8.26475 109.316 8.03343C108.954 7.8021 108.532 7.6831 108.103 7.69143C107.699 7.67351 107.298 7.76662 106.943 7.96067C106.588 8.15471 106.293 8.44226 106.091 8.79209C105.616 9.61366 105.381 10.5517 105.413 11.4998C105.408 12.2301 105.516 12.9567 105.732 13.6543C105.91 14.2634 106.239 14.8174 106.689 15.2643C106.895 15.4668 107.139 15.6262 107.407 15.7332C107.675 15.8403 107.962 15.8928 108.251 15.8878H108.252ZM121.195 16.6094C119.546 16.6094 118.728 15.5024 118.741 13.2884L118.777 8.05295L117.387 8.07052V7.29479C117.676 7.28661 117.96 7.21135 118.215 7.07496C118.47 6.93857 118.69 6.74476 118.858 6.50881C119.265 5.99081 119.568 5.39954 119.752 4.76708H120.365V7.29479H123.4V7.9988L120.367 8.03539C120.355 9.87665 120.346 11.1525 120.339 11.8628C120.332 12.5732 120.328 12.9703 120.326 13.0542C120.29 13.7032 120.395 14.3523 120.633 14.9569C120.727 15.1565 120.879 15.323 121.069 15.4343C121.259 15.5456 121.479 15.5966 121.699 15.5805C122.03 15.5737 122.353 15.4721 122.628 15.2877C122.949 15.0819 123.222 14.8111 123.432 14.493L123.919 14.8896C123.581 15.4613 123.103 15.937 122.529 16.2713C122.115 16.4846 121.66 16.6002 121.195 16.6094ZM132.875 16.6094C132.076 16.6177 131.289 16.4158 130.592 16.0239C129.905 15.6381 129.336 15.0717 128.947 14.3861C128.538 13.6658 128.329 12.8491 128.342 12.0209C128.33 11.1338 128.535 10.2571 128.938 9.46683C129.311 8.73076 129.875 8.10849 130.571 7.66509C131.259 7.22712 132.059 6.9983 132.874 7.00645C133.678 6.99965 134.469 7.20838 135.166 7.61093C135.854 8.00434 136.425 8.57491 136.818 9.26338C137.224 9.9717 137.433 10.7758 137.423 11.592C137.431 12.4714 137.224 13.3394 136.818 14.1197C136.441 14.8616 135.874 15.4907 135.176 15.9434C134.49 16.3862 133.691 16.6177 132.875 16.6094ZM133.022 15.8878C133.414 15.909 133.805 15.8185 134.148 15.6268C134.492 15.4351 134.774 15.1501 134.962 14.8047C135.403 13.9784 135.618 13.0505 135.586 12.1146C135.616 11.0339 135.383 9.96217 134.908 8.99114C134.736 8.59801 134.451 8.26475 134.089 8.03343C133.728 7.8021 133.306 7.6831 132.877 7.69143C132.472 7.67365 132.071 7.76699 131.716 7.9613C131.362 8.15561 131.067 8.44345 130.864 8.79355C130.39 9.61513 130.155 10.5531 130.186 11.5013C130.18 12.2308 130.286 12.9569 130.5 13.6543C130.677 14.2634 131.007 14.8174 131.457 15.2643C131.663 15.4668 131.907 15.6262 132.175 15.7332C132.443 15.8403 132.73 15.8928 133.019 15.8878H133.022ZM154.631 16.6094C154.104 16.6154 153.581 16.5393 153.078 16.384C152.65 16.2528 152.243 16.0611 151.869 15.8146L151.941 16.4469H151.179L151.071 13.3425H151.63C151.647 13.81 151.787 14.2646 152.037 14.6598C152.28 15.0412 152.615 15.355 153.012 15.5717C153.406 15.7918 153.851 15.9067 154.303 15.9054C154.789 15.914 155.268 15.7857 155.685 15.5351C155.872 15.4313 156.028 15.2778 156.135 15.0914C156.242 14.9051 156.295 14.693 156.289 14.4783C156.3 14.1689 156.196 13.8663 155.996 13.6294C155.789 13.3935 155.537 13.2001 155.256 13.0601C154.963 12.9098 154.551 12.7322 154.019 12.5273C153.493 12.3361 152.98 12.1097 152.485 11.8496C152.098 11.6368 151.759 11.3445 151.493 10.9919C151.205 10.5942 151.058 10.1113 151.077 9.62051C151.082 9.20622 151.182 8.79865 151.37 8.42911C151.589 8.00382 151.928 7.65215 152.344 7.41773C152.903 7.11614 153.534 6.97243 154.168 7.00206C154.557 7.00441 154.943 7.06509 155.314 7.18209C155.714 7.30707 156.085 7.50949 156.406 7.77779L156.369 7.09134H157.128V10.2499H156.55C156.528 9.59323 156.304 8.95924 155.908 8.43496C155.716 8.1828 155.465 7.98124 155.177 7.84764C154.889 7.71404 154.573 7.6524 154.256 7.66802C153.791 7.64328 153.332 7.78781 152.965 8.07491C152.817 8.18898 152.697 8.33527 152.614 8.50265C152.531 8.67003 152.488 8.85411 152.486 9.04091C152.479 9.36275 152.592 9.67582 152.803 9.91909C153.026 10.1692 153.292 10.3769 153.589 10.5324C153.998 10.7439 154.42 10.9306 154.852 11.0915C155.371 11.2945 155.878 11.5296 156.368 11.7955C156.751 12.0107 157.086 12.3027 157.352 12.6532C157.628 13.0256 157.772 13.4803 157.758 13.9441C157.777 14.4669 157.622 14.9813 157.319 15.4077C157.024 15.806 156.624 16.1153 156.165 16.302C155.678 16.5072 155.155 16.6117 154.626 16.6094H154.631ZM166.293 16.6094C164.644 16.6094 163.826 15.5024 163.838 13.2884L163.875 8.05295L162.485 8.07052V7.29479C162.774 7.28661 163.057 7.21135 163.313 7.07496C163.568 6.93857 163.788 6.74476 163.956 6.50881C164.362 5.99081 164.666 5.39954 164.85 4.76708H165.463V7.29479H168.496V7.9988L165.463 8.03539C165.451 9.87665 165.443 11.1525 165.437 11.8628C165.431 12.5732 165.428 12.9703 165.428 13.0542C165.392 13.7032 165.497 14.3523 165.735 14.9569C165.829 15.1565 165.981 15.323 166.171 15.4343C166.361 15.5456 166.581 15.5966 166.801 15.5805C167.132 15.5737 167.455 15.4721 167.73 15.2877C168.051 15.0819 168.324 14.8111 168.534 14.493L169.021 14.8896C168.683 15.4613 168.205 15.937 167.631 16.2713C167.214 16.4863 166.753 16.602 166.284 16.6094H166.293ZM177.305 16.6094C176.888 16.6462 176.468 16.586 176.078 16.4337C175.688 16.2814 175.339 16.0409 175.057 15.7312C174.492 14.8177 174.238 13.7453 174.334 12.6751V9.45512C174.327 9.06352 174.351 8.67195 174.406 8.28421L173.16 8.33836V7.59776H173.719C174.079 7.61231 174.439 7.56983 174.785 7.47189C175.012 7.39527 175.221 7.27215 175.398 7.11037H175.922V12.6166C175.867 13.4176 176.018 14.2193 176.361 14.9452C176.515 15.1951 176.736 15.397 176.998 15.5284C177.261 15.6597 177.555 15.7153 177.847 15.6888C178.312 15.683 178.766 15.5455 179.155 15.2921C179.569 15.0403 179.923 14.7017 180.193 14.2998V9.66003C180.186 9.20117 180.216 8.74249 180.284 8.2886L178.984 8.34275V7.60215H179.543C179.903 7.6167 180.263 7.57422 180.609 7.47628C180.836 7.39967 181.045 7.27654 181.222 7.11476H181.746L181.729 13.9382C181.733 14.5047 181.708 15.0709 181.652 15.6346L182.952 15.5629V16.3211H180.37C180.31 15.9483 180.268 15.5873 180.244 15.238C179.839 15.6409 179.369 15.9733 178.854 16.2215C178.373 16.4683 177.842 16.601 177.301 16.6094H177.305ZM191.747 16.6094C191.039 16.6203 190.343 16.4261 189.743 16.0503C189.14 15.662 188.658 15.1117 188.353 14.4622C188.002 13.7116 187.829 12.8902 187.848 12.0619C187.834 11.16 188.038 10.2681 188.444 9.46244C188.815 8.7182 189.385 8.09183 190.092 7.65338C190.812 7.21575 191.641 6.99048 192.483 7.00352C192.87 7.0031 193.255 7.05229 193.629 7.14989C193.963 7.23126 194.287 7.34957 194.595 7.50262V5.02907C194.592 4.63808 194.61 4.2472 194.65 3.85816L193.367 3.92988V3.17171C193.879 3.19052 194.391 3.14826 194.893 3.04584C195.156 2.98409 195.4 2.86011 195.605 2.68432H196.129V14.3934C196.128 14.8038 196.104 15.2137 196.058 15.6214L197.34 15.5497V16.3079H194.758C194.7 15.9975 194.658 15.6844 194.632 15.3697C194.277 15.7588 193.843 16.0668 193.359 16.2728C192.849 16.4956 192.299 16.6103 191.743 16.6094H191.747ZM192.397 15.7312C192.813 15.7228 193.22 15.6079 193.58 15.3975C193.975 15.1831 194.324 14.8915 194.604 14.5398C194.592 14.3447 194.587 14.0139 194.587 13.5475L194.604 8.34861C194.024 7.92255 193.32 7.70024 192.6 7.71631C192.19 7.7086 191.784 7.80267 191.418 7.99013C191.053 8.17758 190.739 8.4526 190.506 8.79063C189.939 9.62459 189.657 10.6197 189.702 11.6272C189.655 12.6634 189.899 13.6922 190.406 14.5969C190.604 14.9475 190.893 15.2378 191.243 15.4366C191.593 15.6354 191.99 15.7352 192.393 15.7254L192.397 15.7312ZM204.077 5.33936C203.949 5.33829 203.824 5.30945 203.708 5.25486C203.593 5.20026 203.491 5.12122 203.409 5.02322C203.218 4.82085 203.113 4.55214 203.117 4.27383C203.113 3.99278 203.218 3.72106 203.409 3.51567C203.492 3.4158 203.596 3.33505 203.713 3.27896C203.83 3.22287 203.957 3.19278 204.087 3.19074C204.219 3.18863 204.35 3.2159 204.47 3.27058C204.591 3.32526 204.697 3.40597 204.782 3.50688C204.969 3.7181 205.069 3.99207 205.062 4.27383C205.067 4.55248 204.962 4.82188 204.769 5.02322C204.681 5.12035 204.574 5.19771 204.453 5.25019C204.333 5.30267 204.204 5.32907 204.072 5.32765L204.077 5.33936ZM202.29 15.7795C202.426 15.793 202.564 15.7765 202.693 15.7313C202.823 15.686 202.941 15.6131 203.039 15.5175C203.196 15.3281 203.29 15.0951 203.31 14.8501C203.34 14.5788 203.355 14.1544 203.355 13.5767V9.46097C203.358 9.06965 203.382 8.67876 203.427 8.29006L202.145 8.36178V7.60361C202.656 7.62242 203.168 7.58016 203.67 7.47774C203.933 7.41599 204.178 7.29202 204.383 7.11622H204.907V14.4095C204.915 14.8201 204.891 15.2308 204.835 15.6375L205.972 15.5834V16.324H202.29V15.7795ZM215.449 16.6094C214.65 16.6177 213.863 16.4158 213.166 16.0239C212.478 15.6383 211.909 15.0719 211.519 14.3861C211.111 13.6658 210.902 12.8491 210.915 12.0209C210.903 11.1347 211.108 10.2591 211.511 9.46976C211.883 8.73261 212.448 8.10929 213.144 7.66509C213.832 7.22712 214.631 6.9983 215.446 7.00645C216.251 6.99965 217.042 7.20838 217.738 7.61093C218.427 8.00434 218.998 8.57491 219.391 9.26338C219.798 9.97126 220.009 10.7754 220 11.592C220.008 12.4714 219.801 13.3394 219.395 14.1197C219.018 14.8616 218.452 15.4907 217.753 15.9434C217.066 16.387 216.264 16.6186 215.446 16.6094H215.449ZM215.596 15.8878C215.988 15.909 216.379 15.8185 216.723 15.6268C217.066 15.4351 217.348 15.1501 217.536 14.8047C217.977 13.9784 218.192 13.0505 218.16 12.1146C218.19 11.0339 217.957 9.96217 217.482 8.99114C217.31 8.59801 217.025 8.26475 216.664 8.03343C216.302 7.8021 215.88 7.6831 215.451 7.69143C215.047 7.67351 214.646 7.76662 214.291 7.96067C213.936 8.15471 213.641 8.44226 213.438 8.79209C212.964 9.61366 212.729 10.5517 212.761 11.4998C212.754 12.2297 212.859 12.9563 213.072 13.6543C213.25 14.2634 213.579 14.8174 214.03 15.2643C214.235 15.4666 214.479 15.6259 214.747 15.7329C215.015 15.84 215.301 15.8926 215.59 15.8878H215.596Z" fill="#D0D0D0"/>
</svg>
